nColumns=19
nRows=98
DataType=double
version=3
OpenSimVersion=4.1
endheader
time	ground_force_calcn_r_vx	ground_force_calcn_r_vy	ground_force_calcn_r_vz	ground_force_calcn_r_px	ground_force_calcn_r_py	ground_force_calcn_r_pz	ground_force_calcn_r_mx	ground_force_calcn_r_my	ground_force_calcn_r_mz	ground_force_calcn_l_vx	ground_force_calcn_l_vy	ground_force_calcn_l_vz	ground_force_calcn_l_px	ground_force_calcn_l_py	ground_force_calcn_l_pz	ground_force_calcn_l_mx	ground_force_calcn_l_my	ground_force_calcn_l_mz
0	4.41045	173.117	1.37212	0.183227	0	-0.150013	-0.00226309	-0.0888298	-0.000704064	0	0	0	0	0	0	0	0	0
0.01	-2.6244	191.286	0.363873	0.189247	0	-0.149625	0.00145454	-0.106018	-0.000201672	0	0	0	0	0	0	0	0	0
0.02	-10.3553	213.399	-0.848554	0.196316	0	-0.149241	0.00568688	-0.117193	0.000466003	0	0	0	0	0	0	0	0	0
0.03	-18.6517	239.46	-2.25918	0.203137	0	-0.14894	0.00913758	-0.117313	0.00110678	0	0	0	0	0	0	0	0	0
0.04	-27.3587	269.226	-3.84724	0.209512	0	-0.148728	0.0104132	-0.102472	0.00146432	0	0	0	0	0	0	0	0	0
0.05	-36.2731	302.208	-5.57993	0.215321	0	-0.148599	0.00852985	-0.071066	0.00131215	0	0	0	0	0	0	0	0	0
0.06	-45.1451	337.687	-7.41994	0.220512	0	-0.148542	0.00327083	-0.0244659	0.000537585	0	0	0	0	0	0	0	0	0
0.07	-53.6936	374.798	-9.3379	0.22508	0	-0.148535	-0.00480436	0.0335359	-0.00083553	0	0	0	0	0	0	0	0	0
0.08	-61.6507	412.65	-11.3145	0.229058	0	-0.148561	-0.014618	0.0978435	-0.00268278	0	0	0	0	0	0	0	0	0
0.09	-68.7858	450.397	-13.3284	0.232502	0	-0.148604	-0.0249229	0.163191	-0.00482922	0	0	0	0	0	0	0	0	0
0.1	-74.8976	487.224	-15.3492	0.235466	0	-0.148652	-0.0345856	0.224986	-0.00708782	0	0	0	0	0	0	0	0	0
0.11	-79.8258	522.324	-17.3398	0.238013	0	-0.1487	-0.0427371	0.279641	-0.00928339	0	0	0	0	0	0	0	0	0
0.12	-83.4624	554.912	-19.2569	0.240204	0	-0.148743	-0.0488327	0.324671	-0.0112669	0	0	0	0	0	0	0	0	0
0.13	-85.7538	584.247	-21.0511	0.242102	0	-0.148778	-0.0526224	0.358521	-0.0129179	0	0	0	0	0	0	0	0	0
0.14	-86.7028	609.676	-22.6716	0.243771	0	-0.148804	-0.0540737	0.380235	-0.0141395	0	0	0	0	0	0	0	0	0
0.15	-86.364	630.683	-24.07	0.245273	0	-0.148821	-0.0533174	0.389357	-0.0148598	0	0	0	0	0	0	0	0	0
0.16	-84.8342	646.918	-25.2066	0.246664	0	-0.148829	-0.0505766	0.385681	-0.0150277	0	0	0	0	0	0	0	0	0
0.17	-82.2412	658.214	-26.0548	0.247997	0	-0.148826	-0.0460932	0.368905	-0.0146028	0	0	0	0	0	0	0	0	0
0.18	-78.7317	664.584	-26.602	0.249319	0	-0.148815	-0.0401078	0.338555	-0.0135517	0	0	0	0	0	0	0	0	0
0.19	-74.4627	666.221	-26.8494	0.25067	0	-0.148791	-0.0328602	0.294002	-0.0118486	0	0	0	0	0	0	0	0	0
0.2	-69.5941	663.479	-26.8121	0.252085	0	-0.148757	-0.024599	0.234516	-0.00947712	0	0	0	0	0	0	0	0	0
0.21	-64.2838	656.849	-26.5181	0.253599	0	-0.148709	-0.0156176	0.159579	-0.00644248	0	0	0	0	0	0	0	0	0
0.22	-58.6829	646.918	-26.0053	0.255242	0	-0.148648	-0.00626195	0.0690314	-0.00277498	0	0	0	0	0	0	0	0	0
0.23	-52.9313	634.329	-25.3182	0.257044	0	-0.14857	0.00307739	-0.0368795	0.00147199	0	0	0	0	0	0	0	0	0
0.24	-47.1534	619.752	-24.5033	0.259029	0	-0.148476	0.0119875	-0.157556	0.00622933	0	0	0	0	0	0	0	0	0
0.25	-41.4549	603.855	-23.6068	0.26122	0	-0.148364	0.0200519	-0.292086	0.0114187	0	0	0	0	0	0	0	0	0
0.26	-35.9222	587.28	-22.6714	0.263634	0	-0.148235	0.0268699	-0.439287	0.0169582	0	0	0	0	0	0	0	0	0
0.27	-30.6225	570.631	-21.7337	0.266283	0	-0.148089	0.032081	-0.597809	0.0227689	0	0	0	0	0	0	0	0	0
0.28	-25.6051	554.463	-20.8226	0.269172	0	-0.147927	0.0353894	-0.766335	0.0287793	0	0	0	0	0	0	0	0	0
0.29	-20.9025	539.269	-19.959	0.272301	0	-0.147753	0.0365797	-0.94373	0.0349286	0	0	0	0	0	0	0	0	0
0.3	-16.5323	525.482	-19.1599	0.275664	0	-0.147571	0.0355209	-1.12904	0.0411665	0	0	0	0	0	0	0	0	0
0.31	-12.4993	513.466	-18.4419	0.279246	0	-0.147381	0.0321659	-1.32136	0.0474586	0	0	0	0	0	0	0	0	0
0.32	-8.79531	503.515	-17.8239	0.283026	0	-0.147186	0.026544	-1.5196	0.0537921	0	0	0	0	0	0	0	0	0
0.33	-5.4006	495.854	-17.3286	0.286971	0	-0.146988	0.0187583	-1.72229	0.0601886	0	0	0	0	0	0	0	0	0
0.34	-2.2845	490.636	-16.9815	0.291044	0	-0.146786	0.00897527	-1.9276	0.0667165	0	0	0	0	0	0	0	0	0
0.35	0.593801	487.947	-16.8092	0.295204	0	-0.14658	-0.00259604	-2.13326	0.0734882	0	0	0	0	0	0	0	0	0
0.36	3.28316	487.805	-16.8361	0.299404	0	-0.146366	-0.0157268	-2.33665	0.0806474	0	0	0	0	0	0	0	0	0
0.37	5.83769	490.17	-17.0824	0.3036	0	-0.146144	-0.0301902	-2.53496	0.0883432	0	0	0	0	0	0	0	0	0
0.38	8.31552	494.939	-17.5607	0.30775	0	-0.145914	-0.045787	-2.72524	0.0966928	0	0	0	0	0	0	0	0	0
0.39	10.7782	501.959	-18.2745	0.311818	0	-0.145676	-0.0623642	-2.90439	0.105738	0	0	0	0	0	0	0	0	0
0.4	13.2892	511.025	-19.217	0.315772	0	-0.145435	-0.0798167	-3.06928	0.11542	0	0	0	0	0	0	0	0	0
0.41	15.9111	521.893	-20.3716	0.319589	0	-0.145192	-0.0980689	-3.21673	0.125562	0	0	0	0	0	0	0	0	0
0.42	18.7023	534.286	-21.7118	0.323254	0	-0.144953	-0.117043	-3.34367	0.135877	0	0	0	0	0	0	0	0	0
0.43	21.7137	547.892	-23.202	0.326764	0	-0.144724	-0.13662	-3.44726	0.145984	0	0	0	0	0	0	0	0	0
0.44	24.986	562.364	-24.7988	0.330119	0	-0.144508	-0.156617	-3.52499	0.155443	0	0	0	0	0	0	0	0	0
0.45	28.5472	577.322	-26.4526	0.333325	0	-0.144313	-0.17676	-3.57468	0.16379	0	0	0	0	0	0	0	0	0
0.46	32.4095	592.355	-28.1095	0.336393	0	-0.14414	-0.196658	-3.59435	0.170565	0	0	0	0	0	0	0	0	0
0.47	36.5683	607.023	-29.7129	0.339339	0	-0.143994	-0.215798	-3.58219	0.175343	0	0	0	0	0	0	0	0	0
0.48	41.0052	620.864	-31.2037	0.342176	0	-0.143876	-0.233583	-3.5367	0.177749	0	0	0	0	0	0	0	0	0
0.49	45.6913	633.396	-32.5213	0.344917	0	-0.143789	-0.249384	-3.45708	0.177502	0	0	0	0	0	0	0	0	0
0.5	50.5874	644.127	-33.6056	0.347571	0	-0.143733	-0.262594	-3.3436	0.174443	0	0	0	0	0	0	0	0	0
0.51	55.6403	652.562	-34.3973	0.350148	0	-0.143709	-0.272661	-3.19783	0.168561	0	0	0	0	0	0	0	0	0
0.52	60.7797	658.213	-34.8396	0.352656	0	-0.143717	-0.279141	-3.02295	0.160007	0	0	0	0	0	0	0	0	0
0.53	65.9158	660.603	-34.8808	0.355105	0	-0.143759	-0.281755	-2.82373	0.149097	6.43902	26.0974	-2.88762	0.756868	0	-0.249509	0.172978	0.701083	-0.0775733
0.54	70.9381	659.282	-34.4787	0.357504	0	-0.143834	-0.280411	-2.60608	0.136291	6.61669	40.8015	-3.03959	0.786012	0	-0.263417	0.118258	0.729234	-0.0543258
0.55	75.7147	653.838	-33.6044	0.359864	0	-0.143943	-0.275211	-2.3766	0.122147	6.24299	58.5038	-3.1692	0.803996	0	-0.270398	0.0777672	0.728765	-0.0394778
0.56	80.0971	643.927	-32.246	0.362197	0	-0.144083	-0.266467	-2.14221	0.107276	5.10987	79.1537	-3.25734	0.816748	0	-0.274356	0.0459285	0.711449	-0.0292776
0.57	83.926	629.295	-30.4121	0.364514	0	-0.144254	-0.254683	-1.90967	0.0922889	2.99608	102.525	-3.27656	0.826751	0	-0.276782	0.0198961	0.680843	-0.0217587
0.58	87.0364	609.812	-28.135	0.366826	0	-0.144452	-0.24052	-1.68518	0.0777495	-0.22383	128.348	-3.18438	0.83524	0	-0.278366	-0.00111444	0.639041	-0.0158549
0.59	89.2664	585.485	-25.4721	0.369139	0	-0.144674	-0.224726	-1.47394	0.0641253	-4.53615	156.42	-2.92287	0.842864	0	-0.279475	-0.0170758	0.588824	-0.0110028
0.6	90.467	556.472	-22.5039	0.371464	0	-0.144913	-0.208031	-1.27962	0.051748	-9.86078	186.564	-2.42046	0.849971	0	-0.280319	-0.0282125	0.533775	-0.00692513
0.61	90.512	523.081	-19.3309	0.373806	0	-0.145161	-0.19105	-1.1041	0.0408031	-16.093	218.558	-1.59921	0.856742	0	-0.281016	-0.0351894	0.477904	-0.00349687
0.62	89.3056	485.776	-16.0681	0.376176	0	-0.145411	-0.174223	-0.947685	0.0313468	-23.0921	252.1	-0.385163	0.863268	0	-0.281643	-0.0389058	0.42474	-0.000648926
0.63	86.792	445.171	-12.8365	0.378582	0	-0.145651	-0.157801	-0.809389	0.0233386	-30.6752	286.798	1.27645	0.86958	0	-0.282242	-0.0401831	0.375693	0.00167208
0.64	82.9664	402.024	-9.75509	0.381042	0	-0.145875	-0.141876	-0.687478	0.0166816	-38.6259	322.168	3.40482	0.875686	0	-0.282834	-0.0395322	0.329728	0.00348471
0.65	77.8835	357.223	-6.93249	0.38358	0	-0.146071	-0.126456	-0.580006	0.011256	-46.6963	357.658	5.98301	0.881574	0	-0.28343	-0.0372152	0.28504	0.00476824
0.66	71.6613	311.764	-4.4588	0.386229	0	-0.146235	-0.111484	-0.485012	0.00693658	-54.6225	392.719	8.97052	0.887232	0	-0.284033	-0.0334517	0.240508	0.0054937
0.67	64.492	266.707	-2.3967	0.389043	0	-0.146357	-0.0968943	-0.400707	0.00360086	-62.1635	426.893	12.3091	0.892659	0	-0.284645	-0.0285127	0.195804	0.00564586
0.68	56.6423	223.113	-0.772258	0.392095	0	-0.146428	-0.0827628	-0.326001	0.00112838	-69.1162	459.819	15.915	0.897852	0	-0.285265	-0.0226579	0.15074	0.00521731
0.69	48.4361	181.973	0.426058	0.3955	0	-0.14644	-0.0692839	-0.260297	-0.000609441	-75.3	491.177	19.6731	0.902808	0	-0.285885	-0.0161184	0.105139	0.00421113
0.7	40.2238	144.133	1.24272	0.399439	0	-0.146375	-0.0566964	-0.203158	-0.00175165	-80.5588	520.623	23.4491	0.907525	0	-0.286497	-0.00916871	0.0592541	0.00266883
0.71	32.341	110.238	1.74508	0.404235	0	-0.146204	-0.0453126	-0.154454	-0.00244501	-84.7754	547.775	27.1084	0.912007	0	-0.287093	-0.002215	0.0143121	0.000708283
0.72	25.0694	80.6992	2.00645	0.410493	0	-0.145867	-0.0355702	-0.114501	-0.00284689	-87.8777	572.236	30.5276	0.916263	0	-0.287671	0.00421435	-0.0274427	-0.00146401
0.73	18.6088	55.6828	2.09199	0.419513	0	-0.145245	-0.0282157	-0.0844293	-0.00317199	-89.8436	593.627	33.6015	0.920315	0	-0.288228	0.00950774	-0.0628208	-0.00355589
0.74	13.0641	35.1312	2.05332	0.434585	0	-0.144065	-0.0250317	-0.0673136	-0.00393429	-90.6977	611.626	36.2496	0.924188	0	-0.288764	0.0130399	-0.0879354	-0.00521171
0.75	0	0	0	0	0	0	0	0	0	-90.5035	625.996	38.4179	0.927916	0	-0.28928	0.0142469	-0.0985431	-0.00604768
0.76	0	0	0	0	0	0	0	0	0	-89.3553	636.599	40.0795	0.931532	0	-0.289779	0.0127071	-0.0905295	-0.00569963
0.77	0	0	0	0	0	0	0	0	0	-87.3687	643.411	41.2329	0.935071	0	-0.290264	0.00821874	-0.0605254	-0.00387876
0.78	0	0	0	0	0	0	0	0	0	-84.6723	646.534	41.8993	0.938567	0	-0.290738	0.000849367	-0.00648553	-0.000420301
0.79	0	0	0	0	0	0	0	0	0	-81.399	646.196	42.1169	0.942047	0	-0.291202	-0.00909387	0.0721928	0.00470529
0.8	0	0	0	0	0	0	0	0	0	-77.678	642.732	41.9339	0.945537	0	-0.291658	-0.0211279	0.174818	0.0114057
0.81	0	0	0	0	0	0	0	0	0	-73.63	636.561	41.403	0.949051	0	-0.292105	-0.034657	0.299624	0.019488
0.82	0	0	0	0	0	0	0	0	0	-69.3627	628.153	40.5777	0.952599	0	-0.292542	-0.0490501	0.444201	0.0286947
0.83	0	0	0	0	0	0	0	0	0	-64.9694	617.996	39.5099	0.956185	0	-0.292967	-0.0637082	0.605999	0.038743
0.84	0	0	0	0	0	0	0	0	0	-60.528	606.576	38.2484	0.959802	0	-0.293374	-0.0781018	0.782691	0.0493535
0.85	0	0	0	0	0	0	0	0	0	-56.1015	594.364	36.8379	0.963439	0	-0.293761	-0.0917811	0.97237	0.0602662
0.86	0	0	0	0	0	0	0	0	0	-51.7385	581.803	35.3201	0.967079	0	-0.294122	-0.104358	1.17351	0.0712413
0.87	0	0	0	0	0	0	0	0	0	-47.4745	569.308	33.7346	0.9707	0	-0.294452	-0.115484	1.38487	0.0820609
0.88	0	0	0	0	0	0	0	0	0	-43.333	557.254	32.1209	0.974276	0	-0.294745	-0.124835	1.60536	0.092535
0.89	0	0	0	0	0	0	0	0	0	-39.3274	545.97	30.5188	0.977781	0	-0.295001	-0.132091	1.83378	0.102505
0.9	0	0	0	0	0	0	0	0	0	-35.4626	535.735	28.9688	0.981186	0	-0.295214	-0.136922	2.06849	0.111849
0.91	0	0	0	0	0	0	0	0	0	-31.7364	526.774	27.5102	0.984465	0	-0.295387	-0.139001	2.30721	0.120491
0.92	0	0	0	0	0	0	0	0	0	-28.1387	519.265	26.1796	0.987592	0	-0.295516	-0.138026	2.5471	0.128416
0.93	0	0	0	0	0	0	0	0	0	-24.6525	513.338	25.0101	0.99055	0	-0.295606	-0.133749	2.78505	0.135689
0.94	0	0	0	0	0	0	0	0	0	-21.2524	509.094	24.0318	0.993323	0	-0.295661	-0.125983	3.01786	0.142458
0.95	0	0	0	0	0	0	0	0	0	-17.9063	506.603	23.271	0.995901	0	-0.295686	-0.114604	3.24237	0.14894
0.96	0	0	0	0	0	0	0	0	0	-14.5756	505.914	22.7511	0.998278	0	-0.295689	-0.0995551	3.45551	0.155396
0.97	0	0	0	0	0	0	0	0	0	-11.2177	507.054	22.4934	1.00045	0	-0.295677	-0.0808456	3.65431	0.162109
